{"title":"The Next Three Days-AC3-XviD-DVDRip 2010 TBS","uid":6191094,"size":1570076702,"categoryP":"video","categoryS":"movies","magnet":"?xt=urn:btih:35996e9d6705249f3ec8c0b7c50d9b0573ed7407&amp;dn=The+Next+Three+Days-AC3-XviD-DVDRip+2010+TBS&amp;tr=udp%3A%2F%2Ftracker.openbittorrent.com%3A80&amp;tr=udp%3A%2F%2Fopen.demonii.com%3A1337&amp;tr=udp%3A%2F%2Ftracker.coppersurfer.tk%3A6969&amp;tr=udp%3A%2F%2Fexodus.desync.com%3A6969","seeders":1,"leechers":0,"uploader":"FatFreddy30","files":-1,"time":1298289253,"description":"A married couple's life is turned upside down when the wife is accused of a murder...\n &lt;a href=&quot;\nhttp://www.imdb.com/title/tt1458175/&quot; rel=&quot;nofollow&quot; target=&quot;_NEW&quot;&gt;\nhttp://www.imdb.com/title/tt1458175/&lt;/a&gt;\n\nSubs: Dutch, English (srt).\n\n\nHet leven lijkt perfect voor John Brennan. Totdat zijn vrouw Lara opgepakt wordt voor een gruwelijke moord die ze niet heeft gepleegd. Drie jaar later doet John er alles aan om zijn gezin bij elkaar te houden. Hij voedt hun zoon op, geeft les op school en doet er alles aan om haar onschuld te bewijzen. Als ook het laatste beroep wordt afgewezen en Lara suÃƒÂ¯cidaal wordt besluit John dat er maar ÃƒÂ©ÃƒÂ©n oplossing mogelijk is; hij moet zijn vrouw uit de gevangenis bevrijden. Hij bedenkt een gedetailleerd vluchtplan en stort zich in een gevaarlijke en onbekende wereld. Uiteindelijk alles op het spel zettend voor de liefde van zijn leven. Remake van de Franse film Pour Elle.\n &lt;a href=&quot;\nhttp://www.moviemeter.nl/film/69057&quot; rel=&quot;nofollow&quot; target=&quot;_NEW&quot;&gt;\nhttp://www.moviemeter.nl/film/69057&lt;/a&gt;\n\nOndertitels: Engels, Nederlands (srt).\n\nGeneral\nComplete name                    : The Next Three Days-AC3-XviD-DVDRip 2010 TBS\\The Next Three Days-AC3-XviD-DVDRip 2010 TBS.avi\nFormat                           : AVI\nFormat/Info                      : Audio Video Interleave\nFile size                        : 1.46 GiB\nDuration                         : 2h 13mn\nOverall bit rate                 : 1 572 Kbps\nWriting application              : VirtualDubMod 1.5.4.1 (build 2178/release)\nWriting library                  : VirtualDubMod build 2178/release\n\nVideo\nID                               : 0\nFormat                           : MPEG-4 Visual\nFormat profile                   : Simple@L3\nFormat settings, BVOP            : No\nFormat settings, QPel            : No\nFormat settings, GMC             : No warppoints\nFormat settings, Matrix          : Default (H.263)\nCodec ID                         : XVID\nCodec ID/Hint                    : XviD\nDuration                         : 2h 13mn\nBit rate                         : 1 115 Kbps\nWidth                            : 720 pixels\nHeight                           : 304 pixels\nDisplay aspect ratio             : 2.35:1\nFrame rate                       : 23.976 fps\nResolution                       : 8 bits\nColorimetry                      : 4:2:0\nScan type                        : Progressive\nBits/(Pixel*Frame)               : 0.212\nStream size                      : 1.04 GiB (71%)\nWriting library                  : XviD 1.1.2 (UTC 2006-11-01)\n\nAudio\nID                               : 1\nFormat                           : AC-3\nFormat/Info                      : Audio Coding 3\nCodec ID                         : 2000\nDuration                         : 2h 13mn\nBit rate mode                    : Constant\nBit rate                         : 448 Kbps\nChannel(s)                       : 6 channels\nChannel positions                : Front: L C R, Surround: L R, LFE\nSampling rate                    : 48.0 KHz\nStream size                      : 427 MiB (28%)\nAlignment                        : Split accross interleaves\nInterleave, duration             : 42 ms (1.00 video frame)\nInterleave, preload duration     : 500 ms\n\nTBS.","torrent":{"xt":"urn:btih:35996e9d6705249f3ec8c0b7c50d9b0573ed7407","amp;dn":"The+Next+Three+Days-AC3-XviD-DVDRip+2010+TBS","amp;tr":["udp%3A%2F%2Ftracker.openbittorrent.com%3A80","udp%3A%2F%2Fopen.demonii.com%3A1337","udp%3A%2F%2Ftracker.coppersurfer.tk%3A6969","udp%3A%2F%2Fexodus.desync.com%3A6969"],"infoHash":"35996e9d6705249f3ec8c0b7c50d9b0573ed7407","infoHashBuffer":{"type":"Buffer","data":[53,153,110,157,103,5,36,159,62,200,192,183,197,13,155,5,115,237,116,7]},"announce":[],"urlList":[]}}